<svg xmlns="http://www.w3.org/2000/svg" version="1.1" xmlns:xlink="http://www.w3.org/1999/xlink" xmlns:svgjs="http://svgjs.dev/svgjs" width="2000" height="2250" viewBox="0 0 2000 2250"><g transform="matrix(1,0,0,1,0.00014687500004129106,0)"><svg viewBox="0 0 320 360" data-background-color="#ef86c1" preserveAspectRatio="xMidYMid meet" height="2250" width="2000" xmlns="http://www.w3.org/2000/svg" xmlns:xlink="http://www.w3.org/1999/xlink"><g id="tight-bounds" transform="matrix(1,0,0,1,0.000023499999997511622,0)"><svg viewBox="0 0 320 360" height="360" width="320"><g><svg></svg></g><g><svg viewBox="0 0 320 360" height="360" width="320"><g><path transform="translate(-74.99272,-51.79039) scale(4.65793,4.65793)" d="M20.6 59.9l0.8 1-0.4-1.3c-0.1-0.6-0.8 0.1-0.4 0.3M21.5 59.3c0.3 0.5 0.6 1 0.6 1.5 0 0.7 0.6 1 1.1 1.2-0.7-0.8-1.1-3-1.7-2.7M59.9 16.9c1.7 0 3.3-0.2 5.1 0.2 4.4 1.1 8.1 3.3 10.6 6.4l7 11.2c0.3 2.8 0.9 5.9 0.8 9.3 0.7 0 0.6-1 1.4-1.2-0.8 2-1.2 4.5-1.4 7.4-0.5-1.6 0-4 0.1-5.3-0.7 1.1-1.1 0.3-1.1-0.2 0.1-0.8-0.3-0.7-0.6-1-1.1-1-1.8-2.1-2.6-3.8 0.5-1.3 0.6-3.2-1-4.2-0.5-0.3-1.1-0.8-1.4-1.6-0.4-1.1-1.1-2.4-0.9-4.1 0.1-0.5-1.5 1.1-2.4 0.4-3.9-2.7-7.8-5.8-12.5-8.4-2.5 0-4.3-0.9-5.2-2-0.8-1-0.2-2.3 1-2.4 0.7 0 1.5-0.2 2.1 0.2 0.1-0.4 0.5-0.9 1-0.9M50 14.6l0.2 0.1c1 0.2 1.5 1.6 2.6 1.1 0 0.7 0.1 1.4-0.1 1.9-0.3 0.8-1.2 0.8-1.9 0.8-6.7-0.4-10.6 2.4-14.7 4.8-1.1 0.7-2.3 1.2-3.2 2.1-4.3 4-9 7.7-10.1 15.1l-0.9 8.2c-0.1 0.9-1.1 1.8-0.9 2.9l0.7 4.9c-0.7-0.7-1.1 0.2-0.9 0.6 0.1 0.3 0.5 1.3 1.1 0.4 0.8 1.5 1.6 4.4 2.7 5.7 3.4 4 7.8 7.6 11.4 11.2 0.9-0.2 1.6-0.2 1.8-0.8 0.3 0.6-0.3 1.2-0.8 1.3 1.6 1 3.4 1.9 5.8 2.1 3.1 0.2 6 0.7 8.7 1.4 1.4-0.4 2.8-0.6 4.3-0.7 0.5 0 0.8-0.8 1.4-1l0.1-1c0.6 0.9 0.5-0.3 0.1-0.9 0.7 0.6 0.9 1.1 1.2 1.5 0-0.3 0.8-1.4 0.8-0.1l0.2-1.3c0.3-0.2 0.4 1.1 0.7 0.2 0.3-0.9 0.9-0.2 1.5-0.5-0.2 0.4-0.1 1.2 0.6 0.7l0.8-0.7c0.5 1.2 1.3 0.7 1.7 0.5 4.4-2.8 8.8-6.1 13-9.4l-0.1 1.3 0.5-1.6c0.5 0.5 0.9 0.1 1.1-0.2 0.6-1 1.4-2 2.7-2.9-1.6 4.3-3.5 7.7-5.9 10.5l-1 1.2c0 0.7-0.2 1.6-1 1.7-0.4 0.1-1.2-0.2-1.8 0.4-0.3 0.4 0.7 1.2-0.1 0.6-0.7-0.5-1.4 0-2.2 0.2-0.6 0.2 0.4 0.8 0.6 1.2 0.2 0.4 0.4 0.8 0.3 1.3l-1.1-1.2c-1.3 0.7-2.1 2-3.2 3-0.5 0.4-0.3 1.1-0.3 1.7-0.7 0-1.5-0.2-1.9 0.2-0.3 0.4-0.2 1-0.2 1.6-1-0.1-1.1-1.6-2-1.3-0.9 0.2-1.9 0.3-2.7 0.8 0.6 1.2-1 0.5-0.8 0.7-1.5-0.9-2.8-1.6-4.4-1-3.4-1.1-7.6-0.6-10.7-0.2 0-0.5 0.1-1-0.1-1.1-0.2 0.5-0.8 0.3-0.7 0.3-1.9-1.3-3.8-2.1-5.8-3.2-1.8 0.2-3.5-0.7-4-1.2-1.4-1.3-3-0.6-4.3-0.9-2.8-0.7-3.8-3.6-4.1-5.6-0.2-1-1-1.4-1.3-1.3-1.3-4.2-3.3-8-4.9-11.9-0.4-1-0.3-2-0.3-3.1 0.5 0.2 1 0.1 0.9-0.6-0.5-3.3-1.7-5.8-3-8.2 0.7-3.4 0.8-7.4 2.4-10.4 1.4-2.7 4-4.1 5.8-6.4 0.6-0.8 0.6-1.9 1.2-2.6 2-2 4-4.1 6.2-5.9 1-0.8 2.2 0 3.7-0.3 0.5-1.8 2.5-3.4 4.4-2.9 0.8 0.2 2.4-1.9 2.9-2.1 0.8-0.3 0.4 0.8 0.4 1.5 1.9-1.5 4.5-2.3 6.9-3.2" fill="#ffffff" fill-rule="nonzero" stroke="none" stroke-width="1" stroke-linecap="butt" stroke-linejoin="miter" stroke-miterlimit="10" stroke-dasharray="" stroke-dashoffset="0" font-family="none" font-weight="none" font-size="none" text-anchor="none" style="mix-blend-mode: normal" data-fill-palette-color="tertiary"></path></g><g transform="matrix(1,0,0,1,69.36474360622117,90)"><svg viewBox="0 0 181.27051278755766 180" height="180" width="181.27051278755766"><g><svg viewBox="0 0 181.27051278755766 180" height="180" width="181.27051278755766"><g><svg viewBox="0 0 192 190.65428496085872" height="180" width="181.27051278755766"><g transform="matrix(1,0,0,1,0,115.1779138253236)"><svg viewBox="0 0 192 75.47637113553512" height="75.47637113553512" width="192"><g id="textblocktransform"><svg viewBox="0 0 192 75.47637113553512" height="75.47637113553512" width="192" id="textblock"><g><svg viewBox="0 0 192 46.042668106940326" height="46.042668106940326" width="192"><g transform="matrix(1,0,0,1,0,0)"><svg width="192" viewBox="3.5 -35.7 185.14 44.400000000000006" height="46.042668106940326" data-palette-color="#ffffff"><path d="M7.55 0L3.5 0 5.95-33.7 11.1-33.7 15.55-21.4 20.95-5.7Q23.85-13.9 26.65-21.4L26.65-21.4 31.3-33.7 36.45-33.7 39.4 0 35.35 0 34.2-13.3 33-28.25Q30.35-20.85 27.55-13.3L27.55-13.3 22.85-0.75 19-0.75 14.55-13.3 9.45-27.95Q9.45-26 8.5-13.3L8.5-13.3 7.55 0ZM56.8 0.45L56.8 0.45Q51.35 0.45 48.17-3.23 45-6.9 45-12.5L45-12.5Q45-18.15 48.27-21.93 51.55-25.7 56.8-25.7L56.8-25.7Q62.55-25.7 65.67-22 68.8-18.3 68.8-12.6L68.8-12.6Q68.8-6.95 65.6-3.25 62.4 0.45 56.8 0.45ZM56.8-22.2L56.8-22.2Q53.2-22.2 51.15-19.4 49.1-16.6 49.1-12.55L49.1-12.55Q49.1-8.6 51.2-5.83 53.3-3.05 56.8-3.05L56.8-3.05Q60.6-3.05 62.65-5.78 64.7-8.5 64.7-12.55L64.7-12.55Q64.7-16.75 62.75-19.48 60.8-22.2 56.8-22.2ZM85.9 0L81.05 0 72.2-25.35 76.3-25.35 79.8-14.65 83.5-3.1Q83.95-5.25 87.25-14.65L87.25-14.65 90.85-25.35 94.95-25.35 85.9 0ZM102.39-14.3L115.99-14.3 115.99-15.3Q115.99-18.45 114.29-20.33 112.59-22.2 109.59-22.2L109.59-22.2Q106.74-22.2 104.74-20.15 102.74-18.1 102.39-14.3L102.39-14.3ZM118.34-5L118.34-5 118.34-1.3Q115.39 0.25 111.14 0.25L111.14 0.25Q105.39 0.25 101.87-3.28 98.34-6.8 98.34-12.6L98.34-12.6Q98.34-18.65 101.49-22.15 104.64-25.65 109.59-25.65L109.59-25.65Q114.34-25.65 117.14-22.6 119.94-19.55 119.94-13.95L119.94-13.95Q119.94-12.35 119.69-11L119.69-11 102.39-11Q102.84-7.25 105.24-5.25 107.64-3.25 111.54-3.25L111.54-3.25Q115.79-3.25 118.34-5ZM128.49-14.3L142.09-14.3 142.09-15.3Q142.09-18.45 140.39-20.33 138.69-22.2 135.69-22.2L135.69-22.2Q132.84-22.2 130.84-20.15 128.84-18.1 128.49-14.3L128.49-14.3ZM144.44-5L144.44-5 144.44-1.3Q141.49 0.25 137.24 0.25L137.24 0.25Q131.49 0.25 127.97-3.28 124.44-6.8 124.44-12.6L124.44-12.6Q124.44-18.65 127.59-22.15 130.74-25.65 135.69-25.65L135.69-25.65Q140.44-25.65 143.24-22.6 146.04-19.55 146.04-13.95L146.04-13.95Q146.04-12.35 145.79-11L145.79-11 128.49-11Q128.94-7.25 131.34-5.25 133.74-3.25 137.64-3.25L137.64-3.25Q141.89-3.25 144.44-5ZM164.14-35.35L164.14-35.35 164.14-31.75Q162.94-32.15 161.84-32.15L161.84-32.15Q160.24-32.15 159.21-31.05 158.19-29.95 158.19-27.65L158.19-27.65 158.19-25.35 163.79-25.35 163.79-22.15 158.19-22.15 158.19 0 154.24 0 154.24-22.15 149.89-22.15 149.89-25.35 154.24-25.35 154.24-27.7Q154.24-31.4 156.21-33.55 158.19-35.7 161.69-35.7L161.69-35.7Q162.89-35.7 164.14-35.35ZM175.49-0.65L175.49-0.65 165.24-25.35 169.69-25.35 172.99-17 177.44-5.5Q177.84-6.8 181.44-17L181.44-17 184.39-25.35 188.64-25.35 179.49-0.65Q177.53 4.5 174.86 6.6 172.19 8.7 168.74 8.7L168.74 8.7Q167.44 8.7 166.64 8.45L166.64 8.45 166.64 4.9Q167.39 5.1 168.34 5.1L168.34 5.1Q173.39 5.1 175.49-0.65Z" opacity="1" transform="matrix(1,0,0,1,0,0)" fill="#ffffff" class="wordmark-text-0" data-fill-palette-color="primary" id="text-0"></path></svg></g></svg></g><g transform="matrix(1,0,0,1,0,56.91223702295437)"><svg viewBox="0 0 192 18.564134112580746" height="18.564134112580746" width="192"><g transform="matrix(1,0,0,1,0,0)"><svg width="192" viewBox="2.5 -36.3 487.6 47.15" height="18.564134112580746" data-palette-color="#ffffff"><path d="M2.5-33.85L7.3-33.85 6.9-21.7 2.9-21.7 2.5-33.85ZM10.95-33.85L15.75-33.85 15.35-21.7 11.35-21.7 10.95-33.85ZM43.45-30.7L40.4-27.05Q39.2-28.35 37.87-29.03 36.55-29.7 34.8-29.7L34.8-29.7Q32.65-29.7 31.17-28.73 29.7-27.75 28.8-26.03 27.9-24.3 27.5-22 27.1-19.7 27.1-17.05L27.1-17.05Q27.1-14.4 27.47-12.1 27.85-9.8 28.77-8.05 29.7-6.3 31.27-5.3 32.85-4.3 35.25-4.3L35.25-4.3Q36.4-4.3 37.45-4.5 38.5-4.7 39.37-4.93 40.25-5.15 40.82-5.35 41.4-5.55 41.55-5.6L41.55-5.6 42.95-1.4 42.3-1.15Q41.65-0.9 40.47-0.58 39.3-0.25 37.67 0.03 36.05 0.3 34.1 0.3L34.1 0.3Q27.4 0.3 24.02-3.98 20.65-8.25 20.65-16.5L20.65-16.5Q20.65-20.45 21.55-23.73 22.45-27 24.27-29.35 26.1-31.7 28.87-33 31.65-34.3 35.4-34.3L35.4-34.3Q38.4-34.3 40.32-33.2 42.25-32.1 43.45-30.7L43.45-30.7ZM53 0.2Q50.15 0.2 48.8-1.38 47.45-2.95 47.45-5.4L47.45-5.4 47.45-35.25 53.15-36.3 53.15-5.95Q53.15-4.8 53.6-4.35 54.05-3.9 54.9-3.9L54.9-3.9Q55.4-3.9 55.87-3.95 56.35-4 56.75-4.1L56.75-4.1Q57.2-4.2 57.55-4.3L57.55-4.3 58.25-0.7Q57.6-0.45 56.8-0.25L56.8-0.25Q56.1-0.05 55.15 0.08 54.2 0.2 53 0.2L53 0.2ZM71.39-25.5Q77.14-25.5 79.74-22.1 82.34-18.7 82.34-12.75L82.34-12.75Q82.34-9.95 81.64-7.53 80.94-5.1 79.52-3.33 78.09-1.55 75.94-0.53 73.79 0.5 70.94 0.5L70.94 0.5Q68.09 0.5 66.02-0.38 63.94-1.25 62.59-2.9 61.24-4.55 60.62-6.9 59.99-9.25 59.99-12.2L59.99-12.2Q59.99-15.05 60.69-17.48 61.39-19.9 62.82-21.68 64.24-23.45 66.39-24.48 68.54-25.5 71.39-25.5L71.39-25.5ZM70.89-21.3Q69.44-21.3 68.52-20.65 67.59-20 67.07-18.82 66.54-17.65 66.34-16.07 66.14-14.5 66.14-12.7L66.14-12.7Q66.14-10.85 66.37-9.2 66.59-7.55 67.19-6.33 67.79-5.1 68.82-4.4 69.84-3.7 71.44-3.7L71.44-3.7Q72.89-3.7 73.82-4.35 74.74-5 75.27-6.18 75.79-7.35 75.99-8.9 76.19-10.45 76.19-12.25L76.19-12.25Q76.19-14.1 75.97-15.75 75.74-17.4 75.14-18.65 74.54-19.9 73.52-20.6 72.49-21.3 70.89-21.3L70.89-21.3ZM94.69-25.5L94.69-25.5Q96.14-25.5 97.54-25.2 98.94-24.9 100.04-24.5L100.04-24.5Q101.34-24.05 102.44-23.55L102.44-23.55 100.74-19.65Q99.74-20.1 98.74-20.45L98.74-20.45Q97.89-20.75 96.87-21.03 95.84-21.3 94.84-21.3L94.84-21.3Q93.69-21.3 92.87-20.75 92.04-20.2 92.04-19.1L92.04-19.1Q92.04-16.25 96.19-14.65L96.19-14.65Q97.74-14.05 98.99-13.38 100.24-12.7 101.12-11.8 101.99-10.9 102.44-9.73 102.89-8.55 102.89-6.95L102.89-6.95Q102.89-5.55 102.31-4.2 101.74-2.85 100.62-1.8 99.49-0.75 97.87-0.13 96.24 0.5 94.19 0.5L94.19 0.5Q92.54 0.5 90.94 0.13 89.34-0.25 88.06-0.7 86.79-1.15 86.04-1.55L86.04-1.55 85.29-1.9 87.14-6.1 87.79-5.75Q88.44-5.35 89.44-4.9 90.44-4.45 91.59-4.08 92.74-3.7 93.69-3.7L93.69-3.7Q95.44-3.7 96.29-4.4 97.14-5.1 97.14-6.25L97.14-6.25Q97.14-7.55 96.22-8.63 95.29-9.7 93.44-10.4L93.44-10.4Q89.59-11.85 87.92-13.7 86.24-15.55 86.24-18.5L86.24-18.5Q86.24-19.9 86.89-21.18 87.54-22.45 88.67-23.43 89.79-24.4 91.34-24.95 92.89-25.5 94.69-25.5ZM106.44-11.85Q106.44-15.2 107.36-17.75 108.29-20.3 109.91-22.03 111.54-23.75 113.74-24.63 115.94-25.5 118.49-25.5L118.49-25.5Q120.74-25.5 122.31-24.95 123.89-24.4 124.89-23.45 125.89-22.5 126.36-21.2 126.84-19.9 126.84-18.4L126.84-18.4Q126.84-16.6 125.84-14.98 124.84-13.35 122.96-12.13 121.09-10.9 118.44-10.18 115.79-9.45 112.49-9.4L112.49-9.4Q112.64-8.25 112.96-7.23 113.29-6.2 113.91-5.43 114.54-4.65 115.54-4.2 116.54-3.75 118.04-3.75L118.04-3.75Q119.14-3.75 120.39-4 121.64-4.25 122.69-4.6L122.69-4.6Q123.94-5 125.14-5.5L125.14-5.5 126.64-1.95Q125.34-1.3 123.84-0.8L123.84-0.8Q122.54-0.35 120.84 0 119.14 0.35 117.24 0.35L117.24 0.35Q114.34 0.35 112.29-0.53 110.24-1.4 108.94-3 107.64-4.6 107.04-6.85 106.44-9.1 106.44-11.85L106.44-11.85ZM118.04-21.6Q116.39-21.6 115.31-20.83 114.24-20.05 113.59-18.82 112.94-17.6 112.66-16.07 112.39-14.55 112.34-13L112.34-13Q114.74-13.1 116.41-13.63 118.09-14.15 119.14-14.93 120.19-15.7 120.66-16.6 121.14-17.5 121.14-18.4L121.14-18.4Q121.14-19.85 120.29-20.73 119.44-21.6 118.04-21.6L118.04-21.6ZM142.74-19.7Q141.84-19.7 140.94-19.25 140.03-18.8 139.34-18.03 138.64-17.25 138.19-16.15 137.74-15.05 137.74-13.7L137.74-13.7 137.74 0 132.03 0 132.03-12.6Q132.03-15.6 131.64-17.63 131.24-19.65 130.78-20.9L130.78-20.9Q130.24-22.35 129.59-23.25L129.59-23.25 134.09-25.05Q134.53-24.5 135.03-23.7L135.03-23.7Q135.44-23 135.84-22.05 136.24-21.1 136.49-19.8L136.49-19.8Q137.49-22.7 139.39-23.98 141.28-25.25 143.69-25.25L143.69-25.25Q144.84-25.25 145.84-24.98 146.84-24.7 146.78-24.7L146.78-24.7 145.19-19.15Q145.24-19.15 144.61-19.43 143.99-19.7 142.74-19.7L142.74-19.7ZM160.03-20.85L160.03-24.9 164.53-24.9 165.53-30.75 170.23-31.8 170.23-24.9 176.38-24.9 175.68-20.85 170.23-20.85 170.23-6.05Q170.23-4.75 170.93-4.38 171.63-4 172.48-4L172.48-4Q173.18-4 173.88-4.1 174.58-4.2 175.13-4.35L175.13-4.35Q175.78-4.5 176.38-4.7L176.38-4.7 177.33-0.95 176.88-0.8Q176.43-0.6 175.56-0.38 174.68-0.15 173.5 0.03 172.33 0.2 170.93 0.2L170.93 0.2Q169.53 0.2 168.35-0.1 167.18-0.4 166.33-1.07 165.48-1.75 165-2.8 164.53-3.85 164.53-5.4L164.53-5.4 164.53-20.85 160.03-20.85ZM186.53-36.25L186.53-21.7Q187.98-23.6 190-24.45 192.03-25.3 194.28-25.3L194.28-25.3Q198.13-25.3 199.85-22.98 201.58-20.65 201.58-16.7L201.58-16.7 201.58 0 195.88 0 195.88-16.3Q195.88-18.4 195.13-19.63 194.38-20.85 192.58-20.85L192.58-20.85Q191.53-20.85 190.45-20.3 189.38-19.75 188.5-18.73 187.63-17.7 187.08-16.3 186.53-14.9 186.53-13.2L186.53-13.2 186.53 0 180.83 0 180.83-35.25 186.53-36.25ZM227.93-23.85L227.93-12.05Q227.93-9.05 228.3-7.03 228.68-5 229.13-3.75L229.13-3.75Q229.68-2.25 230.33-1.4L230.33-1.4 225.88 0.4Q225.23-0.25 224.68-1.15L224.68-1.15Q224.23-1.95 223.83-3.08 223.43-4.2 223.33-5.75L223.33-5.75Q222.48-2.75 220.6-1.23 218.73 0.3 215.53 0.3L215.53 0.3Q213.18 0.3 211.45-0.58 209.73-1.45 208.58-3.08 207.43-4.7 206.88-7 206.33-9.3 206.33-12.1L206.33-12.1Q206.33-14.95 207.2-17.38 208.08-19.8 209.65-21.55 211.23-23.3 213.43-24.3 215.63-25.3 218.28-25.3L218.28-25.3Q219.78-25.3 221.4-25.08 223.03-24.85 224.43-24.6 225.83-24.35 226.8-24.13 227.78-23.9 227.93-23.85L227.93-23.85ZM216.48-3.7Q217.73-3.7 218.78-4.55 219.83-5.4 220.6-6.78 221.38-8.15 221.8-9.93 222.23-11.7 222.23-13.55L222.23-13.55 222.23-20.75Q221.73-20.9 220.73-21.1 219.73-21.3 218.93-21.3L218.93-21.3Q217.03-21.3 215.8-20.65 214.58-20 213.83-18.85 213.08-17.7 212.78-16.1 212.48-14.5 212.48-12.6L212.48-12.6Q212.48-10.85 212.58-9.25 212.68-7.65 213.1-6.4 213.53-5.15 214.33-4.42 215.13-3.7 216.48-3.7L216.48-3.7ZM254.77 0L249.12 0 249.12-16.15Q249.12-18.25 248.37-19.53 247.62-20.8 245.82-20.8L245.82-20.8Q244.67-20.8 243.6-20.23 242.52-19.65 241.67-18.55 240.82-17.45 240.3-15.88 239.77-14.3 239.77-12.35L239.77-12.35 239.77 0 234.07 0 234.07-12.6Q234.07-15.6 233.67-17.63 233.27-19.65 232.82-20.9L232.82-20.9Q232.27-22.35 231.62-23.25L231.62-23.25 236.12-25.05Q236.62-24.5 237.12-23.7L237.12-23.7Q237.52-23 237.92-21.98 238.32-20.95 238.57-19.65L238.57-19.65Q239.87-22.65 242.32-23.98 244.77-25.3 247.47-25.3L247.47-25.3Q251.32-25.3 253.05-22.98 254.77-20.65 254.77-16.7L254.77-16.7 254.77 0ZM294.42-24.9L294.17-10.1Q294.17-8.6 294.39-7.35 294.62-6.1 294.89-4.88 295.17-3.65 295.42-2.4 295.67-1.15 295.67 0.35L295.67 0.35Q295.67 5.65 292.97 8.25 290.27 10.85 285.67 10.85L285.67 10.85Q284.17 10.85 282.67 10.58 281.17 10.3 279.89 9.95 278.62 9.6 277.72 9.25 276.82 8.9 276.52 8.75L276.52 8.75 277.92 4.4Q278.62 4.7 279.49 5.03 280.37 5.35 281.29 5.65 282.22 5.95 283.22 6.15 284.22 6.35 285.17 6.35L285.17 6.35Q287.97 6.35 289.22 4.67 290.47 3 290.47 0.35L290.47 0.35Q290.47-2.05 289.47-4.6L289.47-4.6Q288.07-1.95 285.74-0.83 283.42 0.3 280.87 0.3L280.87 0.3Q276.92 0.3 275.24-2 273.57-4.3 273.57-8.3L273.57-8.3 273.57-24.9 279.27-24.9 279.27-8.45Q279.27-6.35 280.02-5.15 280.77-3.95 282.57-3.95L282.57-3.95Q283.52-3.95 284.59-4.5 285.67-5.05 286.54-6.03 287.42-7 287.99-8.38 288.57-9.75 288.57-11.35L288.57-11.35 288.57-24.9 294.42-24.9ZM310.62-25.5Q316.37-25.5 318.97-22.1 321.57-18.7 321.57-12.75L321.57-12.75Q321.57-9.95 320.87-7.53 320.17-5.1 318.74-3.33 317.32-1.55 315.17-0.53 313.02 0.5 310.17 0.5L310.17 0.5Q307.32 0.5 305.24-0.38 303.17-1.25 301.82-2.9 300.47-4.55 299.84-6.9 299.22-9.25 299.22-12.2L299.22-12.2Q299.22-15.05 299.92-17.48 300.62-19.9 302.04-21.68 303.47-23.45 305.62-24.48 307.77-25.5 310.62-25.5L310.62-25.5ZM310.12-21.3Q308.67-21.3 307.74-20.65 306.82-20 306.29-18.82 305.77-17.65 305.57-16.07 305.37-14.5 305.37-12.7L305.37-12.7Q305.37-10.85 305.59-9.2 305.82-7.55 306.42-6.33 307.02-5.1 308.04-4.4 309.07-3.7 310.67-3.7L310.67-3.7Q312.12-3.7 313.04-4.35 313.97-5 314.49-6.18 315.02-7.35 315.22-8.9 315.42-10.45 315.42-12.25L315.42-12.25Q315.42-14.1 315.19-15.75 314.97-17.4 314.37-18.65 313.77-19.9 312.74-20.6 311.72-21.3 310.12-21.3L310.12-21.3ZM341.36-12.7L341.36-24.9 347.06-24.9 347.06-12.05Q347.06-9.05 347.44-7.03 347.81-5 348.26-3.75L348.26-3.75Q348.81-2.25 349.46-1.4L349.46-1.4 345.01 0.4Q344.41-0.15 343.91-1L343.91-1Q343.51-1.7 343.09-2.73 342.66-3.75 342.51-5.15L342.51-5.15Q341.16-2.2 338.71-0.95 336.26 0.3 333.61 0.3L333.61 0.3Q329.66 0.3 327.99-2 326.31-4.3 326.31-8.3L326.31-8.3 326.31-24.9 332.01-24.9 332.01-8.4Q332.01-6.3 332.76-5.1 333.51-3.9 335.31-3.9L335.31-3.9Q336.41-3.9 337.49-4.53 338.56-5.15 339.44-6.3 340.31-7.45 340.84-9.08 341.36-10.7 341.36-12.7L341.36-12.7ZM364.01-20.85L364.01-24.9 368.51-24.9 369.51-30.75 374.21-31.8 374.21-24.9 380.36-24.9 379.66-20.85 374.21-20.85 374.21-6.05Q374.21-4.75 374.91-4.38 375.61-4 376.46-4L376.46-4Q377.16-4 377.86-4.1 378.56-4.2 379.11-4.35L379.11-4.35Q379.76-4.5 380.36-4.7L380.36-4.7 381.31-0.95 380.86-0.8Q380.41-0.6 379.53-0.38 378.66-0.15 377.48 0.03 376.31 0.2 374.91 0.2L374.91 0.2Q373.51 0.2 372.33-0.1 371.16-0.4 370.31-1.07 369.46-1.75 368.98-2.8 368.51-3.85 368.51-5.4L368.51-5.4 368.51-20.85 364.01-20.85ZM390.51-36.25L390.51-21.7Q391.96-23.6 393.98-24.45 396.01-25.3 398.26-25.3L398.26-25.3Q402.11-25.3 403.83-22.98 405.56-20.65 405.56-16.7L405.56-16.7 405.56 0 399.86 0 399.86-16.3Q399.86-18.4 399.11-19.63 398.36-20.85 396.56-20.85L396.56-20.85Q395.51-20.85 394.43-20.3 393.36-19.75 392.48-18.73 391.61-17.7 391.06-16.3 390.51-14.9 390.51-13.2L390.51-13.2 390.51 0 384.81 0 384.81-35.25 390.51-36.25ZM417.05 0.2Q414.4 0.2 413-1.38 411.6-2.95 411.6-5.45L411.6-5.45 411.6-24.9 417.3-24.9 417.3-5.95Q417.3-4.8 417.65-4.4 418-4 418.7-4L418.7-4Q418.9-4 419.13-4 419.35-4 419.55-4.05L419.55-4.05Q419.75-4.05 420-4.1L420-4.1 420.6-0.5Q420.25-0.3 419.7-0.15L419.7-0.15Q419.25 0 418.58 0.1 417.9 0.2 417.05 0.2L417.05 0.2ZM414.55-36Q416.15-36 417-35.05 417.85-34.1 417.85-32.6L417.85-32.6Q417.85-31.1 416.98-30.1 416.1-29.1 414.4-29.1L414.4-29.1Q412.8-29.1 411.93-30.08 411.05-31.05 411.05-32.45L411.05-32.45Q411.05-34 411.93-35 412.8-36 414.55-36L414.55-36ZM445.75 0L440.1 0 440.1-16.15Q440.1-18.25 439.35-19.53 438.6-20.8 436.8-20.8L436.8-20.8Q435.65-20.8 434.58-20.23 433.5-19.65 432.65-18.55 431.8-17.45 431.28-15.88 430.75-14.3 430.75-12.35L430.75-12.35 430.75 0 425.05 0 425.05-12.6Q425.05-15.6 424.65-17.63 424.25-19.65 423.8-20.9L423.8-20.9Q423.25-22.35 422.6-23.25L422.6-23.25 427.1-25.05Q427.6-24.5 428.1-23.7L428.1-23.7Q428.5-23 428.9-21.98 429.3-20.95 429.55-19.65L429.55-19.65Q430.85-22.65 433.3-23.98 435.75-25.3 438.45-25.3L438.45-25.3Q442.3-25.3 444.03-22.98 445.75-20.65 445.75-16.7L445.75-16.7 445.75 0ZM452.05-35.25L457.75-36.25 457.75-22Q458.15-22.5 458.77-23.08 459.4-23.65 460.35-24.15 461.3-24.65 462.55-25 463.8-25.35 465.45-25.35L465.45-25.35Q467-25.35 468.35-24.9 469.7-24.45 470.67-23.6 471.65-22.75 472.22-21.53 472.8-20.3 472.8-18.75L472.8-18.75Q472.8-16.5 471.87-15.05 470.95-13.6 469.8-12.75L469.8-12.75Q468.5-11.75 466.8-11.15L466.8-11.15 473.8 0 467.35 0 460.15-12.45 460.1-12.95Q460.5-13.05 461.62-13.4 462.75-13.75 463.95-14.4 465.15-15.05 466.07-16.03 467-17 467-18.35L467-18.35Q467-19.8 466.15-20.55 465.3-21.3 463.9-21.3L463.9-21.3Q462-21.3 460.8-20.55 459.6-19.8 458.92-18.85 458.25-17.9 458-17.05 457.75-16.2 457.75-16.05L457.75-16.05 457.75 0 452.05 0 452.05-35.25ZM476.85-33.85L481.65-33.85 481.25-21.7 477.25-21.7 476.85-33.85ZM485.3-33.85L490.1-33.85 489.7-21.7 485.7-21.7 485.3-33.85Z" opacity="1" transform="matrix(1,0,0,1,0,0)" fill="#ffffff" class="slogan-text-1" data-fill-palette-color="secondary" id="text-1"></path></svg></g></svg></g></svg></g></svg></g><g transform="matrix(1,0,0,1,50.014520484299474,0)"><svg viewBox="0 0 91.97095903140105 104.30834490930955" height="104.30834490930955" width="91.97095903140105"><g><svg xmlns="http://www.w3.org/2000/svg" xmlns:xlink="http://www.w3.org/1999/xlink" version="1.1" x="0" y="0" viewBox="14.218999999999994 8.974999999999996 72.34705082326543 82.05199999999999" enable-background="new 0 0 100 100" xml:space="preserve" height="104.30834490930955" width="91.97095903140105" class="icon-icon-0" data-fill-palette-color="accent" id="icon-0"><path d="M80.355 32.666c-1.641-5.632-5.479-11.338-10.537-15.649-4.302-3.669-11.533-8.042-21.56-8.042-8.411 0-17.009 3.516-23.582 9.644-6.646 6.194-10.457 14.351-10.457 22.38 0 7.512 2.375 14.963 6.873 21.541 2.368 3.467 4.741 5.85 6.008 7.012v13.904c0 1.204 0.867 2.234 2.053 2.439l29.38 5.095c0.142 0.024 0.281 0.037 0.422 0.037 0.579 0 1.145-0.203 1.594-0.581 0.562-0.471 0.884-1.165 0.884-1.895V76.106l14.653-0.879c1.316-0.078 2.339-1.174 2.327-2.495l-0.146-16.096h5.823c0.781 0 1.519-0.369 1.982-0.996 0.469-0.625 0.615-1.433 0.391-2.183C86.429 53.34 83.038 41.892 80.355 32.666zM48.812 52.363v0.01c-0.002-0.005-0.005-0.005-0.005-0.007-0.005 0.002-0.005 0.002-0.007 0.007v-0.01c-18.367-11.14-18.401-21.772-18.352-22.869 0-0.032-0.005-0.063-0.005-0.095 0-5.566 4.341-10.083 9.702-10.083 3.784 0 7.056 2.256 8.655 5.542 1.599-3.286 4.871-5.542 8.655-5.542 5.359 0 9.702 4.517 9.702 10.083C67.157 29.399 68.207 40.601 48.812 52.363z" fill="#ffffff" data-fill-palette-color="accent"></path></svg></g></svg></g><g></g></svg></g></svg></g></svg></g></svg></g><defs></defs></svg><rect width="320" height="360" fill="none" stroke="none" visibility="hidden"></rect></g></svg></g></svg>